<svg width="26" height="29" viewBox="0 0 26 29" fill="none" xmlns="http://www.w3.org/2000/svg">
<path d="M15.8725 18.3588C21.2602 18.3588 25.0632 14.6191 25.0632 9.23147C25.0632 3.78042 21.2602 0.104127 15.8725 0.104127H5.54084C5.09715 0.104127 4.78023 0.484433 4.78023 0.864739V13.9853H1.48424C1.04055 13.9853 0.723633 14.3656 0.723633 14.7459V17.5982C0.723633 18.0419 1.04055 18.3588 1.48424 18.3588H4.78023V20.3871H1.48424C1.04055 20.3871 0.723633 20.7674 0.723633 21.1477V23.6831C0.723633 24.1268 1.04055 24.4437 1.48424 24.4437H4.78023V27.7397C4.78023 28.1834 5.09715 28.5003 5.54084 28.5003H9.21714C9.66083 28.5003 9.97775 28.1834 9.97775 27.7397V24.4437H20.246C20.6263 24.4437 21.0066 24.1268 21.0066 23.6831V21.1477C21.0066 20.7674 20.6263 20.3871 20.246 20.3871H9.97775V18.3588H15.8725ZM9.97775 4.47765H14.9851C17.9642 4.47765 19.7389 6.31579 19.7389 9.23147C19.7389 12.0838 17.9642 13.9853 14.9217 13.9853H9.97775V4.47765Z" fill="#94979C"/>
</svg>
