<svg width="12" height="13" viewBox="0 0 12 13" fill="none" xmlns="http://www.w3.org/2000/svg">
<path d="M7.42436 6.50027L11.8813 1.67189C12.0396 1.50043 12.0396 1.22296 11.8813 1.05155L11.0295 0.128379C10.9537 0.0462447 10.8507 0 10.7433 0C10.6358 0 10.5328 0.0462447 10.457 0.128379L6.00001 4.95712L1.54305 0.128379C1.46718 0.0462447 1.36423 0 1.25675 0C1.1493 0 1.04633 0.0462447 0.970489 0.128379L0.118698 1.05155C-0.039566 1.22296 -0.039566 1.50043 0.118698 1.67189L4.57566 6.5003L0.119141 11.3281C-0.0390451 11.4996 -0.0390451 11.777 0.119141 11.9484L0.970984 12.8716C1.0468 12.9538 1.14977 13 1.25725 13C1.36473 13 1.46768 12.9538 1.54357 12.8716L5.99998 8.04344L10.4564 12.8716C10.5323 12.9538 10.6352 13 10.7427 13C10.8502 13 10.9532 12.9538 11.029 12.8716L11.8808 11.9484C12.039 11.777 12.039 11.4996 11.8808 11.3281L7.42436 6.50027Z" fill="black"/>
</svg>
